# MagicaVoxel @ Ephtracy

# material
mtllib MainCharacter.mtl
usemtl palette

# normals
vn -1 0 0
vn 1 0 0
vn 0 0 1
vn 0 0 -1
vn 0 -1 0
vn 0 1 0

# texcoords
vt 0.126953 0.5
vt 0.134766 0.5
vt 0.138672 0.5
vt 0.220703 0.5

# verts
v -3 0 2
v -3 0 -1
v -3 1 2
v -3 1 -1
v -3 4 2
v -3 4 -2
v -3 6 2
v -3 6 -2
v -2 1 -0
v -2 1 -1
v -2 3 3
v -2 3 -0
v -2 3 -1
v -2 3 -4
v -2 4 2
v -2 4 -2
v -2 6 2
v -2 6 -2
v -2 7 -2
v -2 7 -4
v -2 9 1
v -2 9 -0
v -2 10 1
v -2 10 -0
v -2 12 3
v -2 12 -2
v -1 5 -4
v -1 5 -5
v -1 6 4
v -1 6 3
v -1 7 -4
v -1 8 5
v -1 8 4
v -1 8 3
v -1 8 -4
v -1 8 -5
v -1 10 5
v -1 10 3
v -1 12 2
v -1 12 -1
v -1 13 2
v -1 13 -1
v 1 0 2
v 1 0 -1
v 1 1 2
v 1 1 -0
v 1 3 -0
v 1 3 -1
v -1 0 2
v -1 0 -1
v -1 1 2
v -1 1 -0
v -1 3 -0
v -1 3 -1
v 1 5 -4
v 1 5 -5
v 1 6 4
v 1 6 3
v 1 7 -4
v 1 8 5
v 1 8 4
v 1 8 3
v 1 8 -4
v 1 8 -5
v 1 10 5
v 1 10 3
v 1 12 2
v 1 12 -1
v 1 13 2
v 1 13 -1
v 2 1 -0
v 2 1 -1
v 2 3 3
v 2 3 -0
v 2 3 -1
v 2 3 -4
v 2 4 2
v 2 4 -2
v 2 6 2
v 2 6 -2
v 2 7 -2
v 2 7 -4
v 2 9 1
v 2 9 -0
v 2 10 1
v 2 10 -0
v 2 12 3
v 2 12 -2
v 3 0 2
v 3 0 -1
v 3 1 2
v 3 1 -1
v 3 4 2
v 3 4 -2
v 3 6 2
v 3 6 -2
v -1 8 5
v -1 10 5
v 1 8 5
v 1 10 5
v -1 6 4
v -1 8 4
v 1 6 4
v 1 8 4
v -2 3 3
v -2 12 3
v -1 6 3
v -1 8 3
v -1 10 3
v 1 6 3
v 1 8 3
v 1 10 3
v 2 3 3
v 2 12 3
v -3 0 2
v -3 1 2
v -3 4 2
v -3 6 2
v -2 4 2
v -2 6 2
v -1 0 2
v -1 1 2
v -1 12 2
v -1 13 2
v 1 0 2
v 1 1 2
v 1 12 2
v 1 13 2
v 2 4 2
v 2 6 2
v 3 0 2
v 3 1 2
v 3 4 2
v 3 6 2
v -2 1 -0
v -2 3 -0
v -1 1 -0
v -1 3 -0
v 1 1 -0
v 1 3 -0
v 2 1 -0
v 2 3 -0
v -1 7 -4
v -1 8 -4
v 1 7 -4
v 1 8 -4
v -3 0 -1
v -3 1 -1
v -2 1 -1
v -2 3 -1
v -1 0 -1
v -1 3 -1
v -1 12 -1
v -1 13 -1
v 1 0 -1
v 1 3 -1
v 1 12 -1
v 1 13 -1
v 2 1 -1
v 2 3 -1
v 3 0 -1
v 3 1 -1
v -3 4 -2
v -3 6 -2
v -2 4 -2
v -2 6 -2
v -2 7 -2
v -2 12 -2
v 2 4 -2
v 2 6 -2
v 2 7 -2
v 2 12 -2
v 3 4 -2
v 3 6 -2
v -2 3 -4
v -2 7 -4
v -1 5 -4
v -1 7 -4
v 1 5 -4
v 1 7 -4
v 2 3 -4
v 2 7 -4
v -1 5 -5
v -1 8 -5
v 1 5 -5
v 1 8 -5
v -3 0 2
v -1 0 2
v 1 0 2
v 3 0 2
v -3 0 -1
v -1 0 -1
v 1 0 -1
v 3 0 -1
v -2 3 3
v 2 3 3
v -2 3 -0
v -1 3 -0
v 1 3 -0
v 2 3 -0
v -2 3 -1
v -1 3 -1
v 1 3 -1
v 2 3 -1
v -2 3 -4
v 2 3 -4
v -3 4 2
v -2 4 2
v 2 4 2
v 3 4 2
v -3 4 -2
v -2 4 -2
v 2 4 -2
v 3 4 -2
v -1 5 -4
v 1 5 -4
v -1 5 -5
v 1 5 -5
v -1 6 4
v 1 6 4
v -1 6 3
v 1 6 3
v -1 8 5
v 1 8 5
v -1 8 4
v 1 8 4
v -3 1 2
v -1 1 2
v 1 1 2
v 3 1 2
v -2 1 -0
v -1 1 -0
v 1 1 -0
v 2 1 -0
v -3 1 -1
v -2 1 -1
v 2 1 -1
v 3 1 -1
v -3 6 2
v -2 6 2
v 2 6 2
v 3 6 2
v -3 6 -2
v -2 6 -2
v 2 6 -2
v 3 6 -2
v -2 7 -2
v 2 7 -2
v -2 7 -4
v -1 7 -4
v 1 7 -4
v 2 7 -4
v -1 8 -4
v 1 8 -4
v -1 8 -5
v 1 8 -5
v -1 10 5
v 1 10 5
v -1 10 3
v 1 10 3
v -2 12 3
v 2 12 3
v -1 12 2
v 1 12 2
v -1 12 -1
v 1 12 -1
v -2 12 -2
v 2 12 -2
v -1 13 2
v 1 13 2
v -1 13 -1
v 1 13 -1

# faces
f 3/2/1 2/2/1 1/2/1
f 4/2/1 2/2/1 3/2/1
f 7/1/1 6/1/1 5/1/1
f 8/1/1 6/1/1 7/1/1
f 12/2/1 10/2/1 9/2/1
f 13/2/1 10/2/1 12/2/1
f 15/1/1 12/1/1 11/1/1
f 15/1/1 14/1/1 13/1/1
f 15/1/1 13/1/1 12/1/1
f 16/1/1 14/1/1 15/1/1
f 17/1/1 15/1/1 11/1/1
f 18/1/1 14/1/1 16/1/1
f 19/1/1 14/1/1 18/1/1
f 19/1/1 18/1/1 17/1/1
f 20/1/1 14/1/1 19/1/1
f 21/1/1 19/1/1 17/1/1
f 22/1/1 19/1/1 21/1/1
f 23/1/1 21/1/1 17/1/1
f 23/4/1 22/4/1 21/4/1
f 24/1/1 19/1/1 22/1/1
f 24/4/1 22/4/1 23/4/1
f 25/1/1 17/1/1 11/1/1
f 25/1/1 23/1/1 17/1/1
f 25/1/1 24/1/1 23/1/1
f 26/1/1 19/1/1 24/1/1
f 26/1/1 24/1/1 25/1/1
f 31/1/1 28/1/1 27/1/1
f 33/3/1 30/3/1 29/3/1
f 34/3/1 30/3/1 33/3/1
f 35/1/1 28/1/1 31/1/1
f 36/1/1 28/1/1 35/1/1
f 37/2/1 34/2/1 33/2/1
f 37/2/1 33/2/1 32/2/1
f 38/2/1 34/2/1 37/2/1
f 41/3/1 40/3/1 39/3/1
f 42/3/1 40/3/1 41/3/1
f 45/2/1 44/2/1 43/2/1
f 46/2/1 44/2/1 45/2/1
f 47/2/1 44/2/1 46/2/1
f 48/2/1 44/2/1 47/2/1
f 49/2/2 50/2/2 51/2/2
f 51/2/2 50/2/2 52/2/2
f 52/2/2 50/2/2 53/2/2
f 53/2/2 50/2/2 54/2/2
f 55/1/2 56/1/2 59/1/2
f 57/3/2 58/3/2 61/3/2
f 61/3/2 58/3/2 62/3/2
f 59/1/2 56/1/2 63/1/2
f 63/1/2 56/1/2 64/1/2
f 61/2/2 62/2/2 65/2/2
f 60/2/2 61/2/2 65/2/2
f 65/2/2 62/2/2 66/2/2
f 67/3/2 68/3/2 69/3/2
f 69/3/2 68/3/2 70/3/2
f 71/2/2 72/2/2 74/2/2
f 74/2/2 72/2/2 75/2/2
f 73/1/2 74/1/2 77/1/2
f 75/1/2 76/1/2 77/1/2
f 74/1/2 75/1/2 77/1/2
f 77/1/2 76/1/2 78/1/2
f 73/1/2 77/1/2 79/1/2
f 78/1/2 76/1/2 80/1/2
f 80/1/2 76/1/2 81/1/2
f 79/1/2 80/1/2 81/1/2
f 81/1/2 76/1/2 82/1/2
f 79/1/2 81/1/2 83/1/2
f 83/1/2 81/1/2 84/1/2
f 79/1/2 83/1/2 85/1/2
f 83/4/2 84/4/2 85/4/2
f 84/1/2 81/1/2 86/1/2
f 85/4/2 84/4/2 86/4/2
f 73/1/2 79/1/2 87/1/2
f 79/1/2 85/1/2 87/1/2
f 85/1/2 86/1/2 87/1/2
f 86/1/2 81/1/2 88/1/2
f 87/1/2 86/1/2 88/1/2
f 89/2/2 90/2/2 91/2/2
f 91/2/2 90/2/2 92/2/2
f 93/1/2 94/1/2 95/1/2
f 95/1/2 94/1/2 96/1/2
f 99/2/3 98/2/3 97/2/3
f 100/2/3 98/2/3 99/2/3
f 103/3/3 102/3/3 101/3/3
f 104/3/3 102/3/3 103/3/3
f 107/1/3 106/1/3 105/1/3
f 108/1/3 106/1/3 107/1/3
f 109/1/3 106/1/3 108/1/3
f 110/1/3 107/1/3 105/1/3
f 112/1/3 106/1/3 109/1/3
f 113/1/3 111/1/3 110/1/3
f 113/1/3 112/1/3 111/1/3
f 113/1/3 110/1/3 105/1/3
f 114/1/3 106/1/3 112/1/3
f 114/1/3 112/1/3 113/1/3
f 119/1/3 118/1/3 117/1/3
f 120/1/3 118/1/3 119/1/3
f 121/2/3 116/2/3 115/2/3
f 122/2/3 116/2/3 121/2/3
f 127/3/3 124/3/3 123/3/3
f 128/3/3 124/3/3 127/3/3
f 131/2/3 126/2/3 125/2/3
f 132/2/3 126/2/3 131/2/3
f 133/1/3 130/1/3 129/1/3
f 134/1/3 130/1/3 133/1/3
f 137/2/3 136/2/3 135/2/3
f 138/2/3 136/2/3 137/2/3
f 141/2/3 140/2/3 139/2/3
f 142/2/3 140/2/3 141/2/3
f 145/1/3 144/1/3 143/1/3
f 146/1/3 144/1/3 145/1/3
f 147/2/4 148/2/4 149/2/4
f 147/2/4 149/2/4 151/2/4
f 149/2/4 150/2/4 151/2/4
f 151/2/4 150/2/4 152/2/4
f 153/3/4 154/3/4 157/3/4
f 157/3/4 154/3/4 158/3/4
f 155/2/4 156/2/4 159/2/4
f 159/2/4 156/2/4 160/2/4
f 155/2/4 159/2/4 161/2/4
f 161/2/4 159/2/4 162/2/4
f 163/1/4 164/1/4 165/1/4
f 165/1/4 164/1/4 166/1/4
f 167/1/4 168/1/4 171/1/4
f 171/1/4 168/1/4 172/1/4
f 169/1/4 170/1/4 173/1/4
f 173/1/4 170/1/4 174/1/4
f 175/1/4 176/1/4 177/1/4
f 177/1/4 176/1/4 178/1/4
f 175/1/4 177/1/4 179/1/4
f 175/1/4 179/1/4 181/1/4
f 179/1/4 180/1/4 181/1/4
f 181/1/4 180/1/4 182/1/4
f 183/1/4 184/1/4 185/1/4
f 185/1/4 184/1/4 186/1/4
f 191/2/5 188/2/5 187/2/5
f 192/2/5 188/2/5 191/2/5
f 193/2/5 190/2/5 189/2/5
f 194/2/5 190/2/5 193/2/5
f 197/1/5 196/1/5 195/1/5
f 198/1/5 196/1/5 197/1/5
f 199/1/5 196/1/5 198/1/5
f 200/1/5 196/1/5 199/1/5
f 202/1/5 199/1/5 198/1/5
f 203/1/5 199/1/5 202/1/5
f 205/1/5 202/1/5 201/1/5
f 205/1/5 204/1/5 203/1/5
f 205/1/5 203/1/5 202/1/5
f 206/1/5 204/1/5 205/1/5
f 211/1/5 208/1/5 207/1/5
f 212/1/5 208/1/5 211/1/5
f 213/1/5 210/1/5 209/1/5
f 214/1/5 210/1/5 213/1/5
f 217/1/5 216/1/5 215/1/5
f 218/1/5 216/1/5 217/1/5
f 221/3/5 220/3/5 219/3/5
f 222/3/5 220/3/5 221/3/5
f 225/2/5 224/2/5 223/2/5
f 226/2/5 224/2/5 225/2/5
f 227/2/6 228/2/6 231/2/6
f 231/2/6 228/2/6 232/2/6
f 229/2/6 230/2/6 233/2/6
f 233/2/6 230/2/6 234/2/6
f 227/2/6 231/2/6 235/2/6
f 235/2/6 231/2/6 236/2/6
f 234/2/6 230/2/6 237/2/6
f 237/2/6 230/2/6 238/2/6
f 239/1/6 240/1/6 243/1/6
f 243/1/6 240/1/6 244/1/6
f 241/1/6 242/1/6 245/1/6
f 245/1/6 242/1/6 246/1/6
f 247/1/6 248/1/6 249/1/6
f 249/1/6 248/1/6 250/1/6
f 250/1/6 248/1/6 251/1/6
f 251/1/6 248/1/6 252/1/6
f 253/1/6 254/1/6 255/1/6
f 255/1/6 254/1/6 256/1/6
f 257/2/6 258/2/6 259/2/6
f 259/2/6 258/2/6 260/2/6
f 261/1/6 262/1/6 263/1/6
f 263/1/6 262/1/6 264/1/6
f 261/1/6 263/1/6 265/1/6
f 264/1/6 262/1/6 266/1/6
f 261/1/6 265/1/6 267/1/6
f 265/1/6 266/1/6 267/1/6
f 266/1/6 262/1/6 268/1/6
f 267/1/6 266/1/6 268/1/6
f 269/3/6 270/3/6 271/3/6
f 271/3/6 270/3/6 272/3/6
